<mxfile host="app.diagrams.net" modified="2023-06-08T08:13:16.256Z" agent="5.0 (Windows NT 10.0; Win64; x64) AppleWebKit/537.36 (KHTML, like Gecko) Chrome/113.0.0.0 Safari/537.36" etag="BH4q3RYasdg7pe7nmkq6" version="20.8.23" type="github">
  <diagram name="第 1 页" id="abJZbId-rL2KZnV-gO2B">
    <mxGraphModel dx="600" dy="327" grid="1" gridSize="10" guides="1" tooltips="1" connect="1" arrows="1" fold="1" page="1" pageScale="1" pageWidth="827" pageHeight="1169" math="0" shadow="0">
      <root>
        <mxCell id="0" />
        <mxCell id="1" parent="0" />
        <mxCell id="caB3qnpmkLnkEY1W6klu-3" value="" style="edgeStyle=orthogonalEdgeStyle;rounded=0;orthogonalLoop=1;jettySize=auto;html=1;" edge="1" parent="1" source="caB3qnpmkLnkEY1W6klu-1" target="caB3qnpmkLnkEY1W6klu-2">
          <mxGeometry relative="1" as="geometry" />
        </mxCell>
        <mxCell id="caB3qnpmkLnkEY1W6klu-1" value="开始" style="rounded=1;whiteSpace=wrap;html=1;" vertex="1" parent="1">
          <mxGeometry x="354" y="50" width="76" height="40" as="geometry" />
        </mxCell>
        <mxCell id="caB3qnpmkLnkEY1W6klu-6" style="edgeStyle=orthogonalEdgeStyle;rounded=0;orthogonalLoop=1;jettySize=auto;html=1;" edge="1" parent="1" source="caB3qnpmkLnkEY1W6klu-2" target="caB3qnpmkLnkEY1W6klu-5">
          <mxGeometry relative="1" as="geometry" />
        </mxCell>
        <mxCell id="caB3qnpmkLnkEY1W6klu-2" value="离线手册解压" style="rounded=0;whiteSpace=wrap;html=1;" vertex="1" parent="1">
          <mxGeometry x="348" y="120" width="88" height="40" as="geometry" />
        </mxCell>
        <mxCell id="caB3qnpmkLnkEY1W6klu-8" style="edgeStyle=orthogonalEdgeStyle;rounded=0;orthogonalLoop=1;jettySize=auto;html=1;entryX=0.5;entryY=0;entryDx=0;entryDy=0;exitX=0;exitY=0.5;exitDx=0;exitDy=0;" edge="1" parent="1" source="caB3qnpmkLnkEY1W6klu-5" target="caB3qnpmkLnkEY1W6klu-7">
          <mxGeometry relative="1" as="geometry" />
        </mxCell>
        <mxCell id="caB3qnpmkLnkEY1W6klu-11" value="是" style="edgeLabel;html=1;align=center;verticalAlign=middle;resizable=0;points=[];" vertex="1" connectable="0" parent="caB3qnpmkLnkEY1W6klu-8">
          <mxGeometry x="-0.2646" y="1" relative="1" as="geometry">
            <mxPoint x="15" y="12" as="offset" />
          </mxGeometry>
        </mxCell>
        <mxCell id="caB3qnpmkLnkEY1W6klu-10" style="edgeStyle=orthogonalEdgeStyle;rounded=0;orthogonalLoop=1;jettySize=auto;html=1;entryX=0.5;entryY=0;entryDx=0;entryDy=0;" edge="1" parent="1" source="caB3qnpmkLnkEY1W6klu-5" target="caB3qnpmkLnkEY1W6klu-9">
          <mxGeometry relative="1" as="geometry" />
        </mxCell>
        <mxCell id="caB3qnpmkLnkEY1W6klu-5" value="判断是否为增量手册" style="rhombus;whiteSpace=wrap;html=1;" vertex="1" parent="1">
          <mxGeometry x="322" y="197" width="140" height="60" as="geometry" />
        </mxCell>
        <mxCell id="caB3qnpmkLnkEY1W6klu-16" style="edgeStyle=orthogonalEdgeStyle;rounded=0;orthogonalLoop=1;jettySize=auto;html=1;entryX=0;entryY=0.5;entryDx=0;entryDy=0;exitX=0.5;exitY=1;exitDx=0;exitDy=0;" edge="1" parent="1" source="caB3qnpmkLnkEY1W6klu-7" target="caB3qnpmkLnkEY1W6klu-15">
          <mxGeometry relative="1" as="geometry" />
        </mxCell>
        <mxCell id="caB3qnpmkLnkEY1W6klu-7" value="在原手册基础上更新手册描述信息、jobID仍使用原手册的jobID" style="rounded=0;whiteSpace=wrap;html=1;" vertex="1" parent="1">
          <mxGeometry x="181.57" y="280" width="118" height="60" as="geometry" />
        </mxCell>
        <mxCell id="caB3qnpmkLnkEY1W6klu-14" style="edgeStyle=orthogonalEdgeStyle;rounded=0;orthogonalLoop=1;jettySize=auto;html=1;entryX=0.5;entryY=0;entryDx=0;entryDy=0;" edge="1" parent="1" source="caB3qnpmkLnkEY1W6klu-9" target="caB3qnpmkLnkEY1W6klu-13">
          <mxGeometry relative="1" as="geometry" />
        </mxCell>
        <mxCell id="caB3qnpmkLnkEY1W6klu-9" value="删除同版本旧手册信息" style="rounded=0;whiteSpace=wrap;html=1;" vertex="1" parent="1">
          <mxGeometry x="348" y="300" width="88" height="40" as="geometry" />
        </mxCell>
        <mxCell id="caB3qnpmkLnkEY1W6klu-17" style="edgeStyle=orthogonalEdgeStyle;rounded=0;orthogonalLoop=1;jettySize=auto;html=1;entryX=0.5;entryY=0;entryDx=0;entryDy=0;" edge="1" parent="1" source="caB3qnpmkLnkEY1W6klu-13" target="caB3qnpmkLnkEY1W6klu-15">
          <mxGeometry relative="1" as="geometry" />
        </mxCell>
        <mxCell id="caB3qnpmkLnkEY1W6klu-13" value="插入手册信息" style="rounded=0;whiteSpace=wrap;html=1;" vertex="1" parent="1">
          <mxGeometry x="348" y="370" width="88" height="30" as="geometry" />
        </mxCell>
        <mxCell id="caB3qnpmkLnkEY1W6klu-15" value="创建存储桶" style="rounded=0;whiteSpace=wrap;html=1;" vertex="1" parent="1">
          <mxGeometry x="348" y="420" width="88" height="30" as="geometry" />
        </mxCell>
        <mxCell id="caB3qnpmkLnkEY1W6klu-19" value="否" style="text;html=1;align=center;verticalAlign=middle;resizable=0;points=[];autosize=1;strokeColor=none;fillColor=none;" vertex="1" parent="1">
          <mxGeometry x="396" y="257" width="40" height="30" as="geometry" />
        </mxCell>
      </root>
    </mxGraphModel>
  </diagram>
</mxfile>
